<svg height="500pt" viewBox="100 30 500 500" width="500pt" xmlns="http://www.w3.org/2000/svg" fill="#fff"><path d="m154 112h28v28h-28z"/><path d="m182 84h28v28h-28z"/><path d="m210 56h56v28h-56z"/><path d="m266 28h168v28h-168z"/><path d="m434 56h56v28h-56z"/><path d="m490 84h28v28h-28z"/><path d="m546 140h28v56h-28z"/><path d="m518 112h28v28h-28z"/><path d="m126 140h28v56h-28z"/><path d="m98 196h28v168h-28z"/><path d="m126 364h28v56h-28z"/><path d="m154 420h28v28h-28z"/><path d="m182 448h28v28h-28z"/><path d="m210 476h56v28h-56z"/><path d="m266 504h168v28h-168z"/><path d="m434 476h56v28h-56z"/><path d="m490 448h28v28h-28z"/><path d="m518 420h28v28h-28z"/><path d="m546 364h28v56h-28z"/><path d="m574 196h28v168h-28z"/></svg>