<!-- next -->
<svg xmlns="http://www.w3.org/2000/svg" viewBox="0 0 45 45" height="100%" width="100%">
  <path d="M 16.2 24.3 L 20.25 24.3 L 20.25 28.35 L 16.2 28.35 Z M 12.15 16.2 L 16.2 16.2 L 16.2 12.15 L 12.15 12.15 L 12.15 8.1 L 8.1 8.1 L 8.1 36.45 L 12.15 36.45 L 12.15 32.4 L 16.2 32.4 L 16.2 28.35 L 12.15 28.35 Z M 32.4 24.3 L 36.45 24.3 L 36.45 28.35 L 32.4 28.35 Z M 28.35 16.2 L 32.4 16.2 L 32.4 12.15 L 28.35 12.15 L 28.35 8.1 L 24.3 8.1 L 24.3 20.25 L 20.25 20.25 L 20.25 24.3 L 24.3 24.3 L 24.3 36.45 L 28.35 36.45 L 28.35 32.4 L 32.4 32.4 L 32.4 28.35 L 28.35 28.35 Z M 32.4 16.2 L 36.45 16.2 L 36.45 20.25 L 32.4 20.25 Z M 36.45 20.25 L 40.5 20.25 L 40.5 24.3 L 36.45 24.3 Z" fill="rgb(255,255,255)"></path>
</svg>