<svg xmlns="http://www.w3.org/2000/svg" viewBox="0 0 100 100" xmlSpace="preserve" fill="#fff"><rect x="36" y="54" width="9" height="9"/><polygon points="27 36 36 36 36 27 27 27 27 18 18 18 18 71.7 18 81 27 81 27 72 36 72 36 63 27 63 "/><rect x="36" y="36" width="9" height="9"/><rect x="72" y="54" width="9" height="9"/><polygon points="63 36 72 36 72 27 63 27 63 18 54 18 54 45 45 45 45 54 54 54 54 71.7 54 81 63 81 63 72 72 72 72 63 63 63 "/><rect x="72" y="36" width="9" height="9"/><rect x="81" y="45" width="9" height="9"/></svg>

