<svg xmlns="http://www.w3.org/2000/svg" viewBox="0 0 91 91"><g sketchType="MSPage" fill="none"><path d="M22.6 0.8L22.6 8.3 30.1 8.3 37.6 8.3 45.1 8.3 52.6 8.3 60.1 8.3 67.6 8.3 67.6 0.8 60.1 0.8 52.6 0.8 45.1 0.8 37.6 0.8 30.1 0.8 22.6 0.8 22.6 0.8ZM67.6 8.3L67.6 15.8 75.1 15.8 75.1 8.3 67.6 8.3 67.6 8.3ZM75.1 15.8L75.1 23.3 82.6 23.3 82.6 15.8 75.1 15.8 75.1 15.8ZM82.6 23.3L82.6 30.8 82.6 38.3 82.6 45.8 82.6 53.3 82.6 60.8 82.6 68.3 90.1 68.3 90.1 60.8 90.1 53.3 90.1 45.8 90.1 38.3 90.1 30.8 90.1 23.3 82.6 23.3 82.6 23.3ZM82.6 68.3L75.1 68.3 75.1 75.8 82.6 75.8 82.6 68.3 82.6 68.3ZM75.1 75.8L67.6 75.8 67.6 83.3 75.1 83.3 75.1 75.8 75.1 75.8ZM67.6 83.3L60.1 83.3 52.6 83.3 45.1 83.3 37.6 83.3 30.1 83.3 22.6 83.3 22.6 90.8 30.1 90.8 37.6 90.8 45.1 90.8 52.6 90.8 60.1 90.8 67.6 90.8 67.6 83.3 67.6 83.3ZM22.6 83.3L22.6 75.8 15.1 75.8 15.1 83.3 22.6 83.3 22.6 83.3ZM15.1 75.8L15.1 68.3 7.6 68.3 7.6 75.8 15.1 75.8 15.1 75.8ZM7.6 68.3L7.6 60.8 7.6 53.3 7.6 45.8 7.6 38.3 7.6 30.8 7.6 23.3 0.1 23.3 0.1 30.8 0.1 38.3 0.1 45.8 0.1 53.3 0.1 60.8 0.1 68.3 7.6 68.3 7.6 68.3ZM7.6 23.3L15.1 23.3 15.1 15.8 7.6 15.8 7.6 23.3 7.6 23.3ZM15.1 15.8L22.6 15.8 22.6 8.3 15.1 8.3 15.1 15.8 15.1 15.8ZM22.6 23.3L22.6 30.8 22.6 38.3 22.6 45.8 22.6 53.3 22.6 60.8 22.6 68.3 30.1 68.3 37.6 68.3 37.6 60.8 37.6 53.3 37.6 45.8 37.6 38.3 37.6 30.8 37.6 23.3 30.1 23.3 22.6 23.3 22.6 23.3ZM52.6 23.3L52.6 30.8 52.6 38.3 52.6 45.8 52.6 53.3 52.6 60.8 52.6 68.3 60.1 68.3 67.6 68.3 67.6 60.8 67.6 53.3 67.6 45.8 67.6 38.3 67.6 30.8 67.6 23.3 60.1 23.3 52.6 23.3 52.6 23.3Z" sketchType="MSShapeGroup" fill="#fff"/></g></svg>
