<svg xmlns="http://www.w3.org/2000/svg" viewBox="0 0 45 45">
  <path d="M 11.36 0.418 L 11.36 4.127 L 33.613 4.127 L 33.613 0.418 Z M 33.613 4.127 L 33.613 7.835 L 37.322 7.835 L 37.322 4.127 Z M 37.322 7.835 L 37.322 11.544 L 41.031 11.544 L 41.031 7.835 Z M 41.031 11.544 L 41.031 33.797 L 44.739 33.797 L 44.739 11.544 Z M 41.031 33.797 L 37.322 33.797 L 37.322 37.506 L 41.031 37.506 Z M 37.322 37.506 L 33.613 37.506 L 33.613 41.215 L 37.322 41.215 Z M 33.613 41.215 L 11.36 41.215 L 11.36 44.923 L 33.613 44.923 Z M 11.36 41.215 L 11.36 37.506 L 7.651 37.506 L 7.651 41.215 Z M 7.651 37.506 L 7.651 33.797 L 3.943 33.797 L 3.943 37.506 Z M 3.943 33.797 L 3.943 11.544 L 0.234 11.544 L 0.234 33.797 Z M 3.943 11.544 L 7.651 11.544 L 7.651 7.835 L 3.943 7.835 Z M 7.651 7.835 L 11.36 7.835 L 11.36 4.127 L 7.651 4.127 Z M 15.069 7.835 L 15.069 37.506 L 18.778 37.506 L 18.778 33.797 L 22.487 33.797 L 22.487 30.088 L 26.195 30.088 L 26.195 26.379 L 29.904 26.379 L 29.904 18.962 L 26.195 18.962 L 26.195 15.253 L 22.487 15.253 L 22.487 11.544 L 18.778 11.544 L 18.778 7.835 Z" fill="rgb(255,255,255)"></path>
</svg>