<svg xmlns="http://www.w3.org/2000/svg" viewBox="0 0 91 91"><g sketchType="MSPage" fill="none"><path d="M23 0.8L23 8.3 30.5 8.3 38 8.3 45.5 8.3 53 8.3 60.5 8.3 68 8.3 68 0.8 60.5 0.8 53 0.8 45.5 0.8 38 0.8 30.5 0.8 23 0.8 23 0.8ZM68 8.3L68 15.8 75.5 15.8 75.5 8.3 68 8.3 68 8.3ZM75.5 15.8L75.5 23.3 83 23.3 83 15.8 75.5 15.8 75.5 15.8ZM83 23.3L83 30.8 83 38.3 83 45.8 83 53.3 83 60.8 83 68.3 90.5 68.3 90.5 60.8 90.5 53.3 90.5 45.8 90.5 38.3 90.5 30.8 90.5 23.3 83 23.3 83 23.3ZM83 68.3L75.5 68.3 75.5 75.8 83 75.8 83 68.3 83 68.3ZM75.5 75.8L68 75.8 68 83.3 75.5 83.3 75.5 75.8 75.5 75.8ZM68 83.3L60.5 83.3 53 83.3 45.5 83.3 38 83.3 30.5 83.3 23 83.3 23 90.8 30.5 90.8 38 90.8 45.5 90.8 53 90.8 60.5 90.8 68 90.8 68 83.3 68 83.3ZM23 83.3L23 75.8 15.5 75.8 15.5 83.3 23 83.3 23 83.3ZM15.5 75.8L15.5 68.3 8 68.3 8 75.8 15.5 75.8 15.5 75.8ZM8 68.3L8 60.8 8 53.3 8 45.8 8 38.3 8 30.8 8 23.3 0.5 23.3 0.5 30.8 0.5 38.3 0.5 45.8 0.5 53.3 0.5 60.8 0.5 68.3 8 68.3 8 68.3ZM8 23.3L15.5 23.3 15.5 15.8 8 15.8 8 23.3 8 23.3ZM15.5 15.8L23 15.8 23 8.3 15.5 8.3 15.5 15.8 15.5 15.8ZM30.5 15.8L30.5 23.3 30.5 30.8 30.5 38.3 30.5 45.8 30.5 53.3 30.5 60.8 30.5 68.3 30.5 75.8 38 75.8 38 68.3 45.5 68.3 45.5 60.8 53 60.8 53 53.3 60.5 53.3 60.5 45.8 60.5 38.3 53 38.3 53 30.8 45.5 30.8 45.5 23.3 38 23.3 38 15.8 30.5 15.8 30.5 15.8Z" sketchType="MSShapeGroup" fill="#fff"/></g></svg>
