<!-- previous -->
<svg xmlns="http://www.w3.org/2000/svg" viewBox="0 0 50 50">
  <path d="M 24.3 16.2 L 28.35 16.2 L 28.35 20.25 L 24.3 20.25 Z M 32.4 28.35 L 28.35 28.35 L 28.35 32.4 L 32.4 32.4 L 32.4 36.45 L 36.45 36.45 L 36.45 8.1 L 32.4 8.1 L 32.4 12.15 L 28.35 12.15 L 28.35 16.2 L 32.4 16.2 Z M 24.3 24.3 L 28.35 24.3 L 28.35 28.35 L 24.3 28.35 Z M 8.1 16.2 L 12.15 16.2 L 12.15 20.25 L 8.1 20.25 Z M 16.2 28.35 L 12.15 28.35 L 12.15 32.4 L 16.2 32.4 L 16.2 36.45 L 20.25 36.45 L 20.25 24.3 L 24.3 24.3 L 24.3 20.25 L 20.25 20.25 L 20.25 8.1 L 16.2 8.1 L 16.2 12.15 L 12.15 12.15 L 12.15 16.2 L 16.2 16.2 Z M 8.1 24.3 L 12.15 24.3 L 12.15 28.35 L 8.1 28.35 Z M 4.05 20.25 L 8.1 20.25 L 8.1 24.3 L 4.05 24.3 Z" fill="rgb(255,255,255)"></path>
</svg>