<svg xmlns="http://www.w3.org/2000/svg" xmlns:xlink="http://www.w3.org/1999/xlink" xmlns:sketch="http://www.bohemiancoding.com/sketch/ns" viewBox="0 0 91 91" version="1.1" x="0px" y="0px"><title>path27547</title><desc>Created with Sketch.</desc><g stroke="none" stroke-width="1" fill="none" fill-rule="evenodd" sketch:type="MSPage"><path d="M22.6826,0.45508 L22.6826,7.95508 L30.1826,7.95508 L37.6826,7.95508 L45.1826,7.95508 L52.6826,7.95508 L60.1826,7.95508 L67.6826,7.95508 L67.6826,0.45508 L60.1826,0.45508 L52.6826,0.45508 L45.1826,0.45508 L37.6826,0.45508 L30.1826,0.45508 L22.6826,0.45508 L22.6826,0.45508 Z M67.6826,7.95508 L67.6826,15.45508 L75.1826,15.45508 L75.1826,7.95508 L67.6826,7.95508 L67.6826,7.95508 Z M75.1826,15.45508 L75.1826,22.95508 L82.6826,22.95508 L82.6826,15.45508 L75.1826,15.45508 L75.1826,15.45508 Z M82.6826,22.95508 L82.6826,30.45508 L82.6826,37.95508 L82.6826,45.45508 L82.6826,52.95508 L82.6826,60.45508 L82.6826,67.95508 L90.1826,67.95508 L90.1826,60.45508 L90.1826,52.95508 L90.1826,45.45508 L90.1826,37.95508 L90.1826,30.45508 L90.1826,22.95508 L82.6826,22.95508 L82.6826,22.95508 Z M82.6826,67.95508 L75.1826,67.95508 L75.1826,75.45508 L82.6826,75.45508 L82.6826,67.95508 L82.6826,67.95508 Z M75.1826,75.45508 L67.6826,75.45508 L67.6826,82.95508 L75.1826,82.95508 L75.1826,75.45508 L75.1826,75.45508 Z M67.6826,82.95508 L60.1826,82.95508 L52.6826,82.95508 L45.1826,82.95508 L37.6826,82.95508 L30.1826,82.95508 L22.6826,82.95508 L22.6826,90.45508 L30.1826,90.45508 L37.6826,90.45508 L45.1826,90.45508 L52.6826,90.45508 L60.1826,90.45508 L67.6826,90.45508 L67.6826,82.95508 L67.6826,82.95508 Z M22.6826,82.95508 L22.6826,75.45508 L15.1826,75.45508 L15.1826,82.95508 L22.6826,82.95508 L22.6826,82.95508 Z M15.1826,75.45508 L15.1826,67.95508 L7.6826,67.95508 L7.6826,75.45508 L15.1826,75.45508 L15.1826,75.45508 Z M7.6826,67.95508 L7.6826,60.45508 L7.6826,52.95508 L7.6826,45.45508 L7.6826,37.95508 L7.6826,30.45508 L7.6826,22.95508 L0.1826,22.95508 L0.1826,30.45508 L0.1826,37.95508 L0.1826,45.45508 L0.1826,52.95508 L0.1826,60.45508 L0.1826,67.95508 L7.6826,67.95508 L7.6826,67.95508 Z M7.6826,22.95508 L15.1826,22.95508 L15.1826,15.45508 L7.6826,15.45508 L7.6826,22.95508 L7.6826,22.95508 Z M15.1826,15.45508 L22.6826,15.45508 L22.6826,7.95508 L15.1826,7.95508 L15.1826,15.45508 L15.1826,15.45508 Z M52.6826,15.45508 L52.6826,22.95508 L60.1826,22.95508 L60.1826,15.45508 L52.6826,15.45508 L52.6826,15.45508 Z M60.1826,22.95508 L60.1826,30.45508 L67.6826,30.45508 L67.6826,22.95508 L60.1826,22.95508 L60.1826,22.95508 Z M67.6826,30.45508 L67.6826,37.95508 L67.6826,45.45508 L67.6826,52.95508 L67.6826,60.45508 L75.1826,60.45508 L75.1826,52.95508 L75.1826,45.45508 L75.1826,37.95508 L75.1826,30.45508 L67.6826,30.45508 L67.6826,30.45508 Z M67.6826,60.45508 L60.1826,60.45508 L60.1826,67.95508 L67.6826,67.95508 L67.6826,60.45508 L67.6826,60.45508 Z M60.1826,67.95508 L52.6826,67.95508 L52.6826,75.45508 L60.1826,75.45508 L60.1826,67.95508 L60.1826,67.95508 Z M30.1826,22.95508 L30.1826,30.45508 L22.6826,30.45508 L22.6826,37.95508 L15.1826,37.95508 L15.1826,45.45508 L15.1826,52.95508 L22.6826,52.95508 L22.6826,60.45508 L30.1826,60.45508 L30.1826,67.95508 L37.6826,67.95508 L37.6826,60.45508 L37.6826,52.95508 L37.6826,45.45508 L37.6826,37.95508 L37.6826,30.45508 L37.6826,22.95508 L30.1826,22.95508 L30.1826,22.95508 Z M45.1826,30.45508 L45.1826,37.95508 L52.6826,37.95508 L52.6826,30.45508 L45.1826,30.45508 L45.1826,30.45508 Z M52.6826,37.95508 L52.6826,45.45508 L52.6826,52.95508 L60.1826,52.95508 L60.1826,45.45508 L60.1826,37.95508 L52.6826,37.95508 L52.6826,37.95508 Z M52.6826,52.95508 L45.1826,52.95508 L45.1826,60.45508 L52.6826,60.45508 L52.6826,52.95508 L52.6826,52.95508 Z" fill="#fff" sketch:type="MSShapeGroup"/></g></svg>